<svg version="1.2" baseProfile="tiny-ps" xmlns="http://www.w3.org/2000/svg" viewBox="0 0 92 92" width="92" height="92">
	<title>Layer 1</title>
	<style>
		tspan { white-space:pre }
		.shp0 { fill: #f5f5f5 } 
	</style>
	<g id="Layer 1">
		<g id="&lt;Group&gt;">
			<path id="&lt;Compound Path&gt;" fill-rule="evenodd" class="shp0" d="M16.41 0.61C19.62 0.61 23.13 1.62 26.83 3.6C30.43 5.53 34.06 7.94 37.62 10.77C41.17 13.59 44.63 16.71 47.91 20.03C50.47 22.63 52.82 25.08 54.93 27.35L54.93 15.12C54.93 5.49 61.06 0.61 73.14 0.61C78.87 0.61 83.38 1.91 86.52 4.47C89.73 7.08 91.35 10.83 91.35 15.63L91.35 70.2C91.35 73.87 91.18 77.07 90.83 79.7C90.48 82.42 89.72 84.71 88.58 86.48C87.41 88.31 85.71 89.69 83.52 90.57C81.42 91.42 78.66 91.85 75.31 91.85C71.94 91.85 68.41 90.98 64.81 89.27C61.28 87.59 57.72 85.37 54.23 82.65C50.77 79.96 47.33 76.91 44 73.58C41.37 70.94 38.86 68.28 36.53 65.62L36.53 77.34C36.53 86.97 30.58 91.85 18.83 91.85C6.41 91.85 0.11 86.97 0.11 77.34L0.11 26.72C0.11 22.72 0.22 19.09 0.43 15.95C0.65 12.69 1.31 9.91 2.38 7.68C3.49 5.37 5.17 3.59 7.39 2.39C9.57 1.21 12.61 0.61 16.41 0.61ZM54.93 51.59L54.93 32.71C52.64 30.1 49.88 27.12 46.73 23.85C43.5 20.5 40.08 17.3 36.55 14.36C33.05 11.44 29.47 8.97 25.93 7.01C22.49 5.11 19.28 4.14 16.41 4.14C13.43 4.14 11.06 4.54 9.37 5.32C7.74 6.08 6.54 7.26 5.7 8.94C4.83 10.69 4.26 13.03 4.02 15.91C3.77 18.88 3.64 22.52 3.64 26.72L3.64 77.34C3.64 84.73 8.61 88.32 18.83 88.32C28.37 88.32 33 84.73 33 77.34L33 61.38C30.4 58.28 28.06 55.38 26.07 52.76C24.03 50.09 22.48 48 21.46 46.55C19.48 43.77 18.43 41.14 18.34 38.75C18.25 36.33 18.76 34.29 19.85 32.67C20.95 31.04 22.48 29.9 24.39 29.28C26.29 28.66 28.15 28.64 29.91 29.22C31.69 29.79 33.26 31.06 34.57 32.98C35.87 34.89 36.53 37.54 36.53 40.88L36.53 60.14C39.25 63.34 42.24 66.62 45.43 69.88C48.7 73.24 52.08 76.33 55.47 79.04C58.85 81.75 62.29 84.01 65.69 85.75C69.02 87.46 72.25 88.32 75.31 88.32C78.07 88.32 80.32 88.02 81.98 87.42C83.57 86.86 84.73 85.95 85.55 84.65C86.41 83.29 87 81.45 87.32 79.18C87.66 76.8 87.82 73.78 87.82 70.2L87.82 15.63C87.82 13.13 87.32 11.14 86.34 9.7C85.33 8.22 84.09 7.05 82.66 6.24C81.2 5.41 79.59 4.85 77.89 4.57C76.12 4.29 74.52 4.14 73.14 4.14C68.04 4.14 64.25 5.06 61.89 6.87C59.58 8.64 58.46 11.34 58.46 15.12L58.46 31.45C61.1 34.51 63.43 37.32 65.39 39.81C67.43 42.41 68.99 44.46 70.01 45.91C71.63 48.35 72.58 50.63 72.86 52.73C73.14 54.86 72.92 56.74 72.2 58.31C71.48 59.9 70.38 61.14 68.94 62C67.55 62.84 66.01 63.27 64.36 63.29L64.36 63.29L63.45 63.29C62.42 63.29 61.29 62.94 60.02 62.2C58.79 61.49 57.62 60.34 56.57 58.77C55.47 57.15 54.93 54.8 54.93 51.59ZM66.95 47.93C66.05 46.7 64.71 44.89 62.97 42.56C61.67 40.82 60.16 38.94 58.46 36.93L58.46 51.59C58.46 53.93 58.88 55.76 59.7 57.04C60.52 58.29 61.45 59.08 62.55 59.43C63.66 59.79 64.77 59.79 65.89 59.43C66.99 59.07 67.83 58.42 68.48 57.42C69.12 56.42 69.39 55.12 69.28 53.57C69.16 51.97 68.38 50.07 66.95 47.93ZM24.49 44.51L28.5 49.97C29.79 51.74 31.3 53.69 33 55.8L33 40.88C33 38.37 32.57 36.43 31.7 35.12C30.85 33.82 29.88 32.96 28.81 32.57C28.32 32.39 27.81 32.3 27.3 32.3C26.74 32.3 26.15 32.41 25.56 32.63C24.4 33.07 23.51 33.77 22.86 34.79C22.22 35.79 21.95 37.13 22.06 38.77C22.17 40.45 22.99 42.37 24.49 44.51Z" />
		</g>
	</g>
</svg>